<?xml version="1.0" encoding="UTF-8"?>
<svg id="Apple_Dabble" data-name="Apple Dabble" xmlns="http://www.w3.org/2000/svg" viewBox="0 0 1280 1024">
  <path d="M526.97,604.13c-7.12,25.9,6.46,61.23,34.83,61.6,20.72.27,48.48,4.92,54.66-24.42" style="fill: #fd5338; stroke: #d62712; stroke-miterlimit: 10; stroke-width: 7.25px;"/>
  <path d="M650.32,644.26c.24,2.84-1.17,9.43,8.17,16.98,12.02,9.71,47.71,10.39,60.32,1.63,16.38-11.37,19.83-28.73,15.86-57.92" style="fill: #fd5338; stroke: #d62712; stroke-miterlimit: 10; stroke-width: 7.25px;"/>
  <path d="M460.03,492.09c-23.27,10.95-51.78,46.53-39.4,68.13,8.37,14.6,35.32,24.4,62.29.74" style="fill: #fd5338; stroke: #d62712; stroke-miterlimit: 10; stroke-width: 7.25px;"/>
  <path d="M803.47,495.38c32.34,14.12,48.2,39.79,34.72,66.31-7.38,14.51-35.62,25.18-58.39-.37" style="fill: #fd5338; stroke: #d62712; stroke-miterlimit: 10; stroke-width: 7.25px;"/>
  <path d="M640.36,642.56c-98.97,0-193.96-94.27-193.96-187.18,0-53.9,25.29-109.52,66.33-126.39,17.77-7.31,58.9-25.81,90.33-14.82,30.2,10.56,23.46,11.62,59.31,3.01,32.55-7.82,75.38,5.6,100.6,19.64,32.55,18.11,55.13,89.16,42.86,159.19-15.19,86.73-112.53,146.56-165.48,146.56Z" style="fill: #fd5338; stroke: #d62712; stroke-miterlimit: 10; stroke-width: 7.25px;"/>
  <g id="Eyes">
    <ellipse cx="561.94" cy="466.87" rx="23.3" ry="30.38" style="stroke: #000; stroke-miterlimit: 10; stroke-width: 6.58px;"/>
    <ellipse cx="698.61" cy="467.59" rx="23.3" ry="30.38" style="stroke: #000; stroke-miterlimit: 10; stroke-width: 6.58px;"/>
  </g>
  <g id="Eyebrows_Mouth" data-name="Eyebrows &amp;amp; Mouth">
    <path d="M731.25,426.67c-.07-6.87-4.55-12.93-11.18-15.19-6.14-2.09-13.13-.58-17.9,3.88" style="fill: none; stroke: #000; stroke-miterlimit: 10; stroke-width: 5.19px;"/>
    <path d="M559.53,417.8c-5.02-4.94-12.68-6.44-19.15-3.78-6,2.46-10,8.1-10.26,14.44" style="fill: none; stroke: #000; stroke-miterlimit: 10; stroke-width: 5.19px;"/>
    <path d="M595.72,523.92c6.72,15.04,22.08,24.47,38.39,23.65,15.11-.76,28.57-10.2,34.51-24.19" style="fill: none; stroke: #000; stroke-miterlimit: 10; stroke-width: 12.2px;"/>
  </g>
  <g id="Leaf_Right" data-name="Leaf Right">
    <path d="M623.61,297.7s23.49-50.72,56.15-61.96c37.35-12.85,68.7,6.04,73.6,9.23.39.25.54.75.36,1.18-1.85,4.49-11.63,23.58-20.66,36.93-5.29,7.82-17.29,22.03-33.98,24.29-38.12,5.17-75.48-9.67-75.48-9.67Z" style="fill: #489126; stroke: #247611; stroke-miterlimit: 10; stroke-width: 5.62px;"/>
    <path d="M631.56,294.86c13.22-3.75,19.62-1.67,36-3.13,20.75-1.85,24.41-14,23.8-12.56" style="fill: #489126; stroke: #247611; stroke-miterlimit: 10; stroke-width: 5.62px;"/>
  </g>
  <g>
    <path id="Details" d="M661.51,332.73c.92-.05,1,.95.31,1.58-2.87,2.63-6.39,11.17-32.44,10.87-23.47-.27-30.65-8.78-32.71-10.87-.65-.66-.61-1.63.31-1.58,6.46.37,18.49.92,32.27.92s25.81-.55,32.27-.92Z" style="fill: #db351a;"/>
    <path id="Stem" d="M568.66,267.54c-3.05-3.67,3.02-13.34,13.54-21.59,10.52-8.25,21.53-11.96,24.57-8.28,3.05,3.67-25.73,32.1-11.97,20.73,8.97-7.41,18.12-19.41,20.9-17.18,2.04,1.64,12.39,18.58,13.7,23.34,5.14,18.6,5.54,60.91,5.54,68.95,0,4.67-12.65,5.14-14.65,0-4.77-12.25-14.82-29.25-19.49-42.44-3.95-11.18-25.86-15.94-32.15-23.53Z" style="fill: #52362b; stroke: #3d241d; stroke-miterlimit: 10; stroke-width: 3.36px;"/>
  </g>
  <g id="Apple_Details" data-name="Apple Details">
    <path d="M560.33,347.53c2.25,6.79-10.23,20.69-26.84,26.33s-31.08.9-33.33-5.89,10.55-10.99,30.49-13.87c18.24-2.64,27.44-13.36,29.69-6.57Z" style="fill: #fff; opacity: .43;"/>
    <path d="M558.69,353.86c2.25,6.79-10.23,20.69-26.84,26.33-16.62,5.64-31.08.9-33.33-5.89s10.55-10.99,30.49-13.87c18.24-2.64,27.44-13.36,29.69-6.57Z" style="fill: #fff; opacity: .26;"/>
  </g>
  <g id="Cheeks">
    <ellipse cx="505.86" cy="502.01" rx="28.82" ry="17.89" style="fill: #fcacbd;"/>
    <ellipse cx="754.07" cy="502.52" rx="28.82" ry="17.89" style="fill: #fcacbd;"/>
  </g>
</svg>