<?xml version="1.0" encoding="UTF-8"?>
<svg id="Layer_2" data-name="Layer 2" xmlns="http://www.w3.org/2000/svg" viewBox="0 0 759.97 230.8">
  <g id="Fullcolor">
    <g id="Bottom_Layer" data-name="Bottom Layer">
      <path d="M758.23,101.47c-3.25,15.54-5.38,34.7-13.9,47.95-17.77,27.64-49.67,38.7-78.04,43.36-26.69,4.38-64.01-3.21-80.25-24.69-13.3-17.59-18.19-42.9-16.22-65.47,4.21-48.24,42.88-85.03,93.63-87.29,51.5-2.3,105.53,34.74,94.78,86.14Z" style="fill: #ff914d; stroke: #fff; stroke-miterlimit: 10; stroke-width: .73px;"/>
      <g id="SQUEEZ">
        <g>
          <path d="M65.82,170.66c-31.83,5.43-53.61-30.39-61.03-59.04C-.92,88.69-3.2,64.85,11.61,46.86c6.29-7.22,15.12-9.26,23.27-4.27,9.18,5.44,18.8,40.25,25.81,39.73" style="fill: #ff914d; stroke: #fff; stroke-miterlimit: 10; stroke-width: .81px;"/>
          <path d="M60.68,82.31c.99-1.48.04-4.6-1.61-7.41-2.42-4.12-1.59-2.97-3.23-5.76-2.42-4.12-16.13-15.56-12.1-36.22,8.01-41.09,75.74-41.29,97.63-11.52,9.68,13.17,4.96,33,0,46.92-3.23,9.05-4.03,20.58-14.52,18.93-11.96-1.88-9.47,2.93-16.14-6.59-8.07-11.52-4.03-42.8-10.49-46.1-5.1-2.6-1.77,14.89-1.61,18.93.15,3.78,2.97,12.84,4.03,16.46,2.42,8.23,3.69,11.28,4.84,14.82.81,2.47,13.72,32.1,1.61,51.03-12.69,19.86-17.48,31.52-44.38,34.57" style="fill: #ff914d; stroke: #fff; stroke-miterlimit: 10; stroke-width: .81px;"/>
        </g>
        <g>
          <path d="M128.46,87.25c-17.06-.78-8.07-.82-18.31,6.73-3.54,2.61,5.74,13.45,3.77,27.39-.54,3.85-2.94,8.24-5.22,13.73-3.23,7.74-7.88,14.65-8.79,15.51-23.56,22.03,9.67,51.52,31.8,54.07,7.51.86,14.98.85,22.18-.49.53,5.14,2.77,10.69,6.66,15.57,8.22,10.31,20.7,13.72,27.86,7.62,7.16-6.1,6.3-19.4-1.93-29.71-1.98-2.48-4.2-4.55-6.53-6.2,8-7.16,15.05-17.55,20.61-32.16,14.66-38.49,8.84-84.47-17.28-94.62-12.17-4.73-27.42-3.92-41.47,4.69-3.65,2.24-1.23,18.7-13.33,17.88" style="fill: #d74161; stroke: #fff; stroke-miterlimit: 10; stroke-width: .81px;"/>
          <path d="M147.35,129.85c-1.18,3.31-3.03,14.21-2.24,17.95.94,4.47,4.72,1.28,5.19-2.28,1.41-10.62,2.58-12.9,2.58-12.9,0,0,6.48-9.82,6.06-13.51-.07-.64-2.42-4.52-5.54-1.86-1.87,1.6-4.14,7.28-6.05,12.61Z" style="fill: #d74161; stroke: #fff; stroke-miterlimit: 10; stroke-width: .81px;"/>
        </g>
        <path d="M256.98,150.6c-.06,11.32-11.98,16.99-15.46-.22-1.56-7.7,7.29-68.69-.06-87.47-10.97-28.03-54.21.74-45.64,10.15,5.37,5.9,10.56,21.17,11.41,30.83,1.38,15.66.38,25.76-1.12,34.54-4.36,25.53-15.49,38.32-13.45,43.37,20.67,51.34,76.01,34.63,96.67,8.67,6.06-7.61,15.37-24.68,17.67-34.41,1.78-7.52,3.87-24.48,4.22-32.73,2.49-58.37-14.48-66.89-21.66-66.8-10.97.13-18.39.51-24.76,6.81-7.05,6.98-6.7,28.55-6.7,28.55,0,0-1.04,45.93-1.13,59.22" style="fill: #ffe55d; stroke: #fff; stroke-miterlimit: 10; stroke-width: .73px;"/>
        <g>
          <path d="M507.6,155.13s17.06,37.3,76.67,17.57c20.87-6.91,28.33-22.03,30.61-32.74,1.33-6.24,1.05-17.72-9.15-23.72-28.49-16.76-51.29-2.03-58.69,3.93-1.66,1.34-2.65.98-3.88.21-2.78-1.72,19.74-16.43,26.44-24.96,5.8-7.4,18.03-34.24,9.01-45.81-5.86-7.51-10.16-10.36-19.35-12.59-18.81-4.55-45.45,7.96-45.45,7.96,0,0-15.68,7.69-24.76,18.33-8.81,10.31-13.17,28.8-7.01,35.63,7.58,8.41,22.68,6.91,32.97.59,8.45-5.19,19.36-13.5,17.14-8.55" style="fill: #d74161; stroke: #fff; stroke-miterlimit: 10; stroke-width: .73px;"/>
          <path d="M532.25,90.87s-13.22,10.39-24.43,24.02c-5.25,6.38-6.06,19.77-5.4,26.9.7,7.6,5.53,13.53,5.53,13.53" style="fill: #d74161; stroke: #fff; stroke-miterlimit: 10; stroke-width: .73px;"/>
        </g>
        <path d="M395.64,125.21c-.1,2.53,2.38,29.55,22.3,46.77,17.81,15.4,41.76,8.42,44.96,7.65,26.1-6.29,44.34-27.35,44.34-27.35,3.02-4.22,6.1-18.41.86-23.87-4.24-4.41-6.18-2.63-13.65-2.47-5.46.12-22.47,2.8-29.01,4.94-4.18,1.37-7.68,1.65-10.24-.82-1.63-1.57,6.62-4.36,18.77-6.59,9.06-1.66,19.01-4.24,20.48-5.76,4.04-4.19,4.26-11.42,0-16.46-5.08-6.02-17.46-5.36-34.22-4.31-11.15.7-18.37,1.38-18.68.2-.31-1.17,6.33-3.31,8.53-4.12,1.44-.53,2.9-.97,2.9-.97,1.4-.42,2.26-.61,3.36-.9,1.58-.41,2.51-.71,4.84-1.43,19.62-6.09,27.31-14.82,27.31-14.82,2.8-3.15,8.66-8.23,6.83-15.64-2.77-11.23-22.61-17.88-35.03-17.9-22.52-.04-37.92,13.59-41.72,17.06-10.26,9.36-14.62,19.56-17.11,25.55-6.96,16.78-6.33,32.3-6.05,37.9.07,1.46.17,2.67.25,3.5" style="fill: #614b7f; stroke: #fff; stroke-miterlimit: 10; stroke-width: .73px;"/>
      </g>
      <path d="M304.65,135.93c-.39,2.52-1.31,29.81,14.9,49.27,14.49,17.4,37.25,13.14,40.27,12.73,24.64-3.34,43.83-22.33,43.83-22.33,3.26-3.87,7.76-17.71,3.6-23.76-3.36-4.88-5.35-3.32-12.21-4.01-5.02-.5-20.91.26-27.15,1.66-3.99.9-7.23.78-9.28-1.98-1.3-1.75,6.58-3.61,17.97-4.46,8.5-.64,17.91-2.09,19.44-3.45,4.2-3.73,5.25-10.94,1.95-16.46-3.94-6.59-15.36-7.33-30.83-8.17-10.29-.56-16.99-.7-17.13-1.91-.14-1.2,6.19-2.59,8.3-3.15,1.38-.37,2.77-.64,2.77-.64,1.33-.26,2.14-.36,3.18-.52,1.5-.23,2.38-.42,4.6-.88,18.68-3.87,26.76-11.73,26.76-11.73,2.94-2.83,8.9-7.25,8.1-14.86-1.21-11.54-18.6-20.43-29.96-21.85-20.62-2.58-36.33,9.3-40.22,12.34-10.5,8.2-15.7,17.9-18.69,23.61-8.36,15.98-9.61,31.57-10.01,37.2-.1,1.47-.16,2.69-.19,3.53" style="fill: #349cda; stroke: #fff; stroke-miterlimit: 10; stroke-width: .84px;"/>
    </g>
    <g id="MiddleLayer">
      <path d="M745.88,102.9c-3.17,13.93-5.24,31.1-13.55,42.97-17.32,24.77-48.41,34.69-76.06,38.86-26.02,3.92-62.38-2.88-78.22-22.13-12.96-15.77-17.73-38.45-15.81-58.67,4.11-43.23,41.79-76.2,91.25-78.23,50.19-2.06,102.85,31.14,92.38,77.2Z" style="fill: #fff; stroke: #fff; stroke-miterlimit: 10; stroke-width: .76px;"/>
      <g id="SQUEEZ-2" data-name="SQUEEZ">
        <g>
          <path d="M71.03,164.92c-31.02,4.87-52.25-27.23-59.49-52.91-5.57-20.56-7.79-41.92,6.64-58.04,6.13-6.47,14.74-8.3,22.68-3.83,8.94,4.88,18.32,36.07,25.15,35.6" style="fill: #fff; stroke: #fff; stroke-miterlimit: 10; stroke-width: .76px;"/>
          <path d="M66.02,85.74c.96-1.33.04-4.12-1.57-6.64-2.36-3.69-1.55-2.66-3.15-5.16-2.36-3.69-15.72-13.94-11.8-32.46C57.31,4.65,123.33,4.47,144.65,31.15c9.44,11.8,4.84,29.58,0,42.05-3.15,8.11-3.93,18.44-14.16,16.97-11.66-1.68-9.23,2.63-15.73-5.9-7.86-10.33-3.93-38.36-10.22-41.31-4.97-2.33-1.73,13.35-1.57,16.97.14,3.38,2.89,11.51,3.93,14.75,2.36,7.38,3.59,10.11,4.72,13.28.79,2.21,13.37,28.77,1.57,45.74-12.37,17.8-17.04,28.25-43.25,30.98" style="fill: #fff; stroke: #fff; stroke-miterlimit: 10; stroke-width: .76px;"/>
        </g>
        <g>
          <path d="M132.07,90.16c-16.63-.7-7.86-.74-17.85,6.03-3.45,2.34,5.6,12.05,3.68,24.54-.53,3.45-2.86,7.39-5.09,12.3-3.15,6.94-7.68,13.13-8.57,13.9-22.96,19.74,9.42,46.18,30.99,48.46,7.32.77,14.6.76,21.62-.44.51,4.61,2.7,9.58,6.49,13.95,8.02,9.24,20.17,12.3,27.15,6.83,6.98-5.47,6.14-17.39-1.88-26.63-1.93-2.22-4.09-4.08-6.37-5.55,7.8-6.42,14.67-15.73,20.09-28.82,14.29-34.5,8.61-75.7-16.85-84.8-11.86-4.24-26.73-3.52-40.42,4.21-3.56,2.01-1.2,16.76-13,16.02" style="fill: #fff; stroke: #fff; stroke-miterlimit: 10; stroke-width: .76px;"/>
          <path d="M150.49,128.34c-1.15,2.97-2.95,12.73-2.18,16.08.92,4,4.6,1.14,5.06-2.04,1.37-9.52,2.51-11.56,2.51-11.56,0,0,6.31-8.81,5.91-12.11-.07-.57-2.36-4.05-5.4-1.67-1.83,1.43-4.04,6.52-5.9,11.3Z" style="fill: #fff; stroke: #fff; stroke-miterlimit: 10; stroke-width: .76px;"/>
        </g>
        <path d="M257.34,146.94c-.06,10.14-11.67,15.23-15.07-.2-1.52-6.9,7.11-61.56-.06-78.4-10.7-25.12-52.84.66-44.49,9.09,5.24,5.29,10.29,18.98,11.12,27.63,1.35,14.03.37,23.09-1.09,30.95-4.25,22.88-15.09,34.34-13.11,38.87,20.14,46.01,74.08,31.03,94.22,7.77,5.91-6.82,14.98-22.12,17.22-30.84,1.73-6.74,3.77-21.94,4.11-29.34,2.43-52.31-14.11-59.95-21.11-59.87-10.7.12-17.93.46-24.13,6.1-6.87,6.25-6.53,25.59-6.53,25.59,0,0-1.01,41.16-1.1,53.07" style="fill: #fff; stroke: #fff; stroke-miterlimit: 10; stroke-width: .76px;"/>
        <g>
          <path d="M508.43,150.27s15.84,33.51,70.11,16.24c19-6.05,25.7-19.54,27.71-29.12,1.17-5.58.83-15.86-8.52-21.3-26.13-15.19-46.84-2.15-53.55,3.14-1.51,1.19-2.41.86-3.54.17-2.55-1.56,17.9-14.58,23.96-22.18,5.25-6.59,16.21-30.54,7.9-40.96-5.4-6.77-9.35-9.35-17.76-11.4-17.21-4.2-41.43,6.83-41.43,6.83,0,0-14.25,6.79-22.47,16.25-7.97,9.18-11.81,25.7-6.15,31.86,6.98,7.58,20.76,6.33,30.1.74,7.67-4.59,17.58-11.96,15.58-7.54" style="fill: #fff; stroke: #fff; stroke-miterlimit: 10; stroke-width: .76px;"/>
          <path d="M530.47,92.9s-11.99,9.22-22.13,21.35c-4.74,5.68-5.39,17.66-4.74,24.05.69,6.81,5.14,12.15,5.14,12.15" style="fill: #fff; stroke: #fff; stroke-miterlimit: 10; stroke-width: .76px;"/>
        </g>
        <path d="M397.25,124.17c-.09,2.27,2.19,26.48,20.44,41.92,16.32,13.8,38.27,7.55,41.2,6.86,23.91-5.64,40.63-24.51,40.63-24.51,2.77-3.78,5.59-16.5.78-21.39-3.88-3.95-5.67-2.35-12.51-2.21-5.01.1-20.59,2.5-26.59,4.43-3.83,1.23-7.04,1.48-9.38-.74-1.49-1.41,6.07-3.91,17.2-5.9,8.3-1.49,17.42-3.8,18.77-5.16,3.7-3.76,3.9-10.24,0-14.75-4.66-5.39-16-4.8-31.36-3.86-10.21.62-16.84,1.23-17.12.17-.28-1.04,5.8-2.96,7.82-3.69,1.32-.47,2.66-.87,2.66-.87,1.28-.38,2.07-.55,3.08-.8,1.45-.37,2.3-.63,4.43-1.28,17.98-5.46,25.02-13.28,25.02-13.28,2.57-2.83,7.93-7.37,6.26-14.02-2.54-10.06-20.72-16.03-32.1-16.05-20.64-.04-34.75,12.18-38.23,15.28-9.4,8.39-13.4,17.53-15.68,22.9-6.38,15.03-5.8,28.95-5.54,33.96.07,1.31.16,2.39.23,3.14" style="fill: #fff; stroke: #fff; stroke-miterlimit: 10; stroke-width: .76px;"/>
      </g>
      <path d="M309.66,134.5c-.38,2.26-1.39,26.67,13.44,43.98,13.26,15.48,34.28,11.54,37.06,11.16,22.75-3.13,40.56-20.22,40.56-20.22,3.03-3.48,7.27-15.89,3.47-21.27-3.07-4.35-4.92-2.94-11.24-3.52-4.62-.42-19.28.35-25.05,1.64-3.69.83-6.67.74-8.55-1.72-1.19-1.56,6.09-3.27,16.6-4.09,7.84-.62,16.53-1.97,17.95-3.19,3.89-3.36,4.91-9.81,1.89-14.73-3.6-5.87-14.12-6.47-28.38-7.13-9.49-.44-15.66-.53-15.79-1.62-.13-1.07,5.72-2.35,7.67-2.86,1.27-.34,2.56-.59,2.56-.59,1.23-.24,1.98-.33,2.94-.48,1.38-.21,2.2-.39,4.25-.81,17.25-3.57,24.75-10.64,24.75-10.64,2.73-2.55,8.25-6.53,7.56-13.34-1.05-10.31-17.03-18.17-27.5-19.38-19-2.19-33.57,8.52-37.17,11.26-9.74,7.39-14.59,16.09-17.38,21.22-7.8,14.34-9.06,28.29-9.46,33.33-.11,1.31-.16,2.41-.19,3.16" style="fill: #fff; stroke: #fff; stroke-miterlimit: 10; stroke-width: .76px;"/>
    </g>
    <g id="TopLayer">
      <path d="M740.9,103.7c-3.12,12.97-5.17,28.97-13.35,40.03-17.07,23.08-47.69,32.31-74.93,36.2-25.63,3.66-61.46-2.68-77.06-20.61-12.77-14.69-17.47-35.82-15.57-54.65,4.05-40.27,41.17-70.98,89.9-72.87,49.45-1.92,101.33,29,91.01,71.91Z" style="fill: #ff914d; stroke: #fff; stroke-miterlimit: 10; stroke-width: .73px;"/>
      <path d="M615.2,94.69c-8.75,4.21-5.34,24.99-6.7,37.64-1.63,15.11,5.13,19.18,14.03,18.9,10.74-.34,18.36-6.03,16.61-25.16-1.31-14.36,1.94-28.93-5.84-32.18-5.15-2.16-12.5-1.89-18.1.81Z" style="fill: #ff914d; stroke: #fff; stroke-miterlimit: 10; stroke-width: .73px;"/>
      <ellipse cx="624.2" cy="71.92" rx="14.28" ry="12.63" transform="translate(-.51 4.58) rotate(-.42)" style="fill: #ff914d; stroke: #fff; stroke-miterlimit: 10; stroke-width: .73px;"/>
      <path d="M660.08,83.82c-5.08,2.72-9.41-1.26-13.01,2.82-3.66,4.14-2.9,15.24,2.42,17.52,3.5,1.5,11.35-1.05,9.73,2.31-3.27,6.76-9.24,29.6.92,40.15,9.35,9.7,39.16,2.54,42.03-5.56.5-1.42,3.31-7.03-.58-9.11-.96-.51-3.39-2.75-6.58-2.7-2.53.04-8.15,1.73-8.64-.04-3.38-12.4-5.53-19.86-2.11-24.17,1.16-1.46,4.63-.72,6.09-.8,2.44-.12,3.52-.43,10.08-1.73,7.09-1.41,5-13.83,1.37-17.56-3.86-3.97-8.01-.58-12.03-1.57-3.69-.91-.5-6.06-2.52-11.71-1.99-5.58-5.85-8.65-14.67-7.84-5.78.53-9.88,4.74-10.82,5.99-3.5,4.61,2.71,11.68-1.67,14.03Z" style="fill: #ff914d; stroke: #fff; stroke-miterlimit: 10; stroke-width: .73px;"/>
      <g id="SQUEEZ-3" data-name="SQUEEZ">
        <g>
          <path d="M76.04,161.47c-30.56,4.54-51.48-25.37-58.61-49.29-5.48-19.15-7.67-39.05,6.55-54.07,6.04-6.03,14.52-7.73,22.34-3.57,8.81,4.54,18.05,33.6,24.78,33.16" style="fill: #ff914d; stroke: #fff; stroke-miterlimit: 10; stroke-width: .73px;"/>
          <path d="M71.1,87.71c.95-1.23.04-3.84-1.55-6.18-2.32-3.44-1.52-2.48-3.1-4.81-2.32-3.44-15.49-12.99-11.62-30.24,7.69-34.31,72.73-34.47,93.75-9.62,9.3,10.99,4.76,27.55,0,39.17-3.1,7.56-3.87,17.18-13.95,15.81-11.49-1.57-9.09,2.45-15.5-5.5-7.75-9.62-3.87-35.73-10.07-38.48-4.9-2.17-1.7,12.43-1.55,15.81.14,3.15,2.85,10.72,3.87,13.74,2.32,6.87,3.54,9.42,4.65,12.37.77,2.06,13.17,26.8,1.55,42.61-12.19,16.58-16.78,26.32-42.61,28.86" style="fill: #ff914d; stroke: #fff; stroke-miterlimit: 10; stroke-width: .73px;"/>
        </g>
        <g>
          <path d="M136.18,91.83c-16.38-.65-7.75-.69-17.58,5.62-3.4,2.18,5.51,11.22,3.62,22.86-.52,3.22-2.82,6.88-5.01,11.46-3.1,6.46-7.57,12.23-8.45,12.94-22.62,18.39,9.28,43.01,30.54,45.14,7.21.72,14.38.71,21.3-.41.5,4.29,2.66,8.92,6.39,13,7.9,8.61,19.87,11.46,26.75,6.36,6.87-5.09,6.05-16.2-1.85-24.81-1.9-2.07-4.03-3.8-6.27-5.17,7.69-5.98,14.45-14.65,19.79-26.85,14.08-32.13,8.49-70.52-16.6-78.99-11.69-3.95-26.33-3.28-39.82,3.92-3.51,1.87-1.18,15.61-12.8,14.93" style="fill: #d74161; stroke: #fff; stroke-miterlimit: 10; stroke-width: .73px;"/>
          <path d="M154.32,127.39c-1.14,2.76-2.91,11.86-2.15,14.98.91,3.73,4.53,1.07,4.99-1.9,1.35-8.87,2.47-10.77,2.47-10.77,0,0,6.22-8.2,5.82-11.28-.07-.53-2.32-3.78-5.32-1.55-1.8,1.33-3.98,6.07-5.81,10.53Z" style="fill: #fff; stroke: #fff; stroke-miterlimit: 10; stroke-width: .73px;"/>
        </g>
        <path d="M259.59,144.72c-.06,9.45-11.5,14.19-14.84-.18-1.5-6.43,7-57.35-.06-73.03-10.54-23.4-52.06.61-43.83,8.47,5.16,4.93,10.14,17.68,10.96,25.74,1.33,13.07.36,21.51-1.08,28.83-4.19,21.31-14.87,31.99-12.92,36.21,19.84,42.86,72.98,28.91,92.83,7.24,5.82-6.35,14.76-20.61,16.96-28.73,1.71-6.28,3.71-20.44,4.05-27.33,2.39-48.73-13.91-55.84-20.8-55.77-10.54.11-17.66.43-23.77,5.68-6.77,5.82-6.44,23.83-6.44,23.83,0,0-1,38.35-1.09,49.44" style="fill: #ffe55d; stroke: #fff; stroke-miterlimit: 10; stroke-width: .73px;"/>
        <g>
          <path d="M506.97,147.82s15.6,31.22,69.08,15.13c18.72-5.63,25.32-18.2,27.3-27.12,1.16-5.2.82-14.77-8.4-19.84-25.74-14.15-46.14-2-52.76,2.92-1.48,1.1-2.37.8-3.48.16-2.51-1.46,17.64-13.58,23.6-20.66,5.17-6.13,15.97-28.45,7.78-38.15-5.32-6.3-9.21-8.71-17.49-10.62-16.95-3.91-40.82,6.36-40.82,6.36,0,0-14.04,6.32-22.14,15.14-7.85,8.55-11.64,23.94-6.05,29.67,6.88,7.06,20.45,5.9,29.65.69,7.56-4.27,17.32-11.14,15.35-7.03" style="fill: #d74161; stroke: #fff; stroke-miterlimit: 10; stroke-width: .73px;"/>
          <path d="M528.68,94.38s-11.81,8.59-21.8,19.88c-4.67,5.29-5.31,16.45-4.67,22.4.68,6.34,5.07,11.32,5.07,11.32" style="fill: #d74161; stroke: #fff; stroke-miterlimit: 10; stroke-width: .73px;"/>
        </g>
        <path d="M397.43,123.51c-.09,2.11,2.15,24.67,20.14,39.05,16.08,12.85,37.71,7.04,40.59,6.39,23.56-5.25,40.03-22.83,40.03-22.83,2.73-3.52,5.51-15.37.77-19.93-3.82-3.68-5.58-2.19-12.33-2.06-4.93.1-20.29,2.33-26.19,4.12-3.78,1.14-6.93,1.37-9.24-.69-1.47-1.31,5.98-3.64,16.95-5.5,8.18-1.39,17.16-3.54,18.49-4.81,3.65-3.5,3.84-9.54,0-13.74-4.59-5.03-15.77-4.47-30.9-3.6-10.06.58-16.59,1.15-16.87.16-.28-.97,5.71-2.76,7.7-3.44,1.3-.44,2.62-.81,2.62-.81,1.26-.35,2.04-.51,3.03-.75,1.43-.34,2.27-.59,4.37-1.19,17.71-5.08,24.65-12.37,24.65-12.37,2.53-2.63,7.81-6.87,6.16-13.06-2.5-9.38-20.42-14.93-31.63-14.95-20.33-.03-34.24,11.34-37.67,14.24-9.27,7.82-13.2,16.33-15.45,21.33-6.28,14-5.71,26.97-5.46,31.64.07,1.22.16,2.23.22,2.92" style="fill: #614b7f; stroke: #fff; stroke-miterlimit: 10; stroke-width: .73px;"/>
      </g>
      <path d="M311.14,133.13c-.37,2.1-1.37,24.84,13.24,40.97,13.06,14.42,33.77,10.75,36.52,10.39,22.41-2.91,39.96-18.83,39.96-18.83,2.99-3.24,7.16-14.8,3.42-19.82-3.02-4.05-4.84-2.74-11.07-3.28-4.55-.39-19,.32-24.68,1.53-3.63.77-6.57.69-8.42-1.6-1.17-1.45,6-3.04,16.35-3.81,7.72-.58,16.28-1.84,17.68-2.97,3.84-3.13,4.83-9.14,1.87-13.72-3.54-5.47-13.91-6.02-27.96-6.65-9.35-.41-15.43-.49-15.56-1.5-.12-1,5.64-2.19,7.56-2.67,1.25-.31,2.52-.55,2.52-.55,1.21-.23,1.95-.31,2.89-.45,1.36-.2,2.17-.36,4.18-.76,17-3.32,24.38-9.91,24.38-9.91,2.69-2.38,8.13-6.08,7.45-12.42-1.03-9.61-16.77-16.92-27.09-18.05-18.72-2.04-33.07,7.94-36.62,10.49-9.59,6.89-14.37,14.99-17.12,19.76-7.69,13.36-8.92,26.35-9.32,31.04-.1,1.22-.16,2.24-.19,2.94" style="fill: #349cda; stroke: #fff; stroke-miterlimit: 10; stroke-width: .73px;"/>
    </g>
    <g id="IT_top_layer" data-name="IT top layer">
      <path d="M623.56,93.86c-8.77,4.33-5.75,26.52-7.33,39.96-1.88,16.06,4.77,20.51,13.61,20.35,10.68-.19,18.36-6.11,16.96-26.51-1.05-15.31,2.44-30.76-5.24-34.36-5.08-2.38-12.39-2.21-18.01.56Z" style="fill: #fff;"/>
      <ellipse cx="632.91" cy="69.77" rx="14.2" ry="13.44" style="fill: #fff;"/>
      <path d="M668.37,83.03c-5.1,2.82-9.33-1.49-12.98,2.79-3.71,4.35-3.15,16.18,2.09,18.69,3.45,1.65,11.31-.93,9.63,2.61-3.37,7.14-9.71,31.36.21,42.76,9.12,10.48,38.89,3.34,41.88-5.23.52-1.5,3.42-7.43-.42-9.71-.94-.56-3.32-2.99-6.49-2.99-2.51,0-8.14,1.71-8.59-.19-3.14-13.26-5.14-21.23-1.68-25.77,1.18-1.54,4.62-.69,6.07-.75,2.42-.09,3.51-.4,10.05-1.68,7.08-1.39,5.22-14.64,1.68-18.67-3.77-4.29-7.96-.75-11.94-1.87-3.65-1.03-.39-6.46-2.3-12.51-1.88-5.98-5.67-9.3-14.45-8.59-5.75.47-9.91,4.89-10.86,6.19-3.56,4.85,2.49,12.48-1.91,14.9Z" style="fill: #fff;"/>
    </g>
  </g>
</svg>