<?xml version="1.0" encoding="UTF-8"?>
<svg id="Mysti_Swirl" data-name="Mysti Swirl" xmlns="http://www.w3.org/2000/svg" xmlns:xlink="http://www.w3.org/1999/xlink" viewBox="0 0 1280 1024">
  <defs>
    <linearGradient id="linear-gradient" x1="459.64" y1="522.43" x2="842.75" y2="522.43" gradientUnits="userSpaceOnUse">
      <stop offset=".04" stop-color="#ceadff"/>
      <stop offset=".18" stop-color="#dba0e2"/>
      <stop offset=".38" stop-color="#ea92bf"/>
      <stop offset=".57" stop-color="#f587a7"/>
      <stop offset=".74" stop-color="#fc8198"/>
      <stop offset=".89" stop-color="#ff7f93"/>
    </linearGradient>
    <linearGradient id="linear-gradient-2" x1="458.49" y1="429.87" x2="757.57" y2="429.87" gradientUnits="userSpaceOnUse">
      <stop offset=".04" stop-color="#ceadff"/>
      <stop offset=".2" stop-color="#dba0e2"/>
      <stop offset=".43" stop-color="#ea92bf"/>
      <stop offset=".64" stop-color="#f587a7"/>
      <stop offset=".84" stop-color="#fc8198"/>
      <stop offset="1" stop-color="#ff7f93"/>
    </linearGradient>
  </defs>
  <g id="Body">
    <path d="M530.47,664.96c-7.26,30.7,9.64,72.25,42.29,72.31,23.84.04,55.96,5.16,62.01-29.59" style="fill: #ff727a; stroke: #c65560; stroke-miterlimit: 10; stroke-width: 6.12px;"/>
    <path d="M667.83,707.45c0,3.65-2.26,11.99,7.71,22.27,12.82,13.23,53.63,16.52,68.93,6.16,19.85-13.44,25.48-35.41,23.76-73.02" style="fill: #ff727a; stroke: #c65560; stroke-miterlimit: 10; stroke-width: 6.37px;"/>
    <path d="M464,555.86c-25.3,11.24-53.88,49.09-40.49,71.12,9.05,14.88,35.82,23.37,65.17-.86" style="fill: #ffb04d; stroke: #c65560; stroke-miterlimit: 10; stroke-width: 5.53px;"/>
    <path d="M834.51,551.34c36.09,13.21,55.21,40.29,42.61,70.36-6.89,16.45-36.68,30.16-63.26,3.72" style="fill: #ffb04d; stroke: #c65560; stroke-miterlimit: 10; stroke-width: 5.74px;"/>
    <path d="M842.75,522.43c0,101.87-85.76,184.44-191.55,184.44s-191.55-82.58-191.55-184.44,85.76-184.44,191.55-184.44c59.04,0,102.57,27.75,114.24,36.38,4.62,3.42,77.31,59.87,77.31,148.06Z" style="fill: url(#linear-gradient); stroke: #c65560; stroke-miterlimit: 10; stroke-width: 5.79px;"/>
    <path d="M807.27,551.58c0,79.23-70.56,152.97-157.3,152.97s-158.26-70.42-160.05-149.63c-.65-28.72,24.64-108.16,65.41-117.57,25.02-5.78,33.03.67,93.91-2,40.36-1.77,71.24-9.35,99.09,13.36,60.48,49.32,58.94,60.69,58.94,102.87Z" style="fill: #ffc24a;"/>
  </g>
  <g id="Swirl">
    <path d="M687.29,202.83c2.48,1.62,20.86,16.27,32.19,36.34,12.79,22.66,7.03,55.07,4.88,59.65-2.63,5.59-8.35,14.8-20.49,24.3-24.6,19.26-43.68,12.26-75.11,16.31-24.08,3.1-59.84,17.74-73.92,22.98-14.42,5.36-18.8-21.46-9.1-44,8.92-20.74,34.38-38.8,50.4-44.44,19.62-6.9,37.87-15.4,50.18-23.97,2.02-1.41,3.25-12.7.43-22.88-1.37-4.94-9.22-12.02-14.2-11.05-14.99,2.92-10.62,13.13-15.28,5.47-4.15-6.82,3.99-23.34,18.64-27.69,7.56-2.24,19.59-2.61,30.02-.22,9.78,2.24,18.13,7.09,21.35,9.19Z" style="fill: #ff9872; stroke: #c65560; stroke-miterlimit: 10; stroke-width: 3.47px;"/>
    <path d="M701.08,305.34c-2.06,4.25-6.52,11.27-15.94,18.53-19.1,14.73-33.82,9.5-58.13,12.72-18.63,2.46-46.33,13.74-57.24,17.78-11.17,4.14-8.11,2.36-.51-14.79,6.99-15.78,33.11-21.92,45.52-26.27,15.19-5.32,46.34-17.57,59.99-37.92,3.01-4.49,14.14-22.16,3.09-43.84-2.89-5.66-20.65-23.33-20.16-23.48,3.06-.91,21.84,5.17,33.49,15.43,6.34,5.58,17.83,26.16,19.18,45.64,1.24,17.85-8.49,34.52-9.3,36.19Z" style="fill: #ffc150; stroke: #fcb33d; stroke-miterlimit: 10; stroke-width: 2.31px;"/>
    <path d="M762.4,394.59c-2.06,4.25-44.48,28.65-68.79,31.87-7.81,1.03-30.51,5.24-54.77,6-33.6,1.06-81.29.37-87.58,1.03-7.57.79,40.32-15.69,79.34-19.2,24.16-2.17,45.86-9.39,50.78-11.11,5.11-1.79,33.7-9.91,54.57-26.1,10.18-7.9,17.21-18.78,22.11-29.33,11.33-24.37-31.46-48.31-31.22-48.38,3.06-.91,17.61,6.38,29.26,16.64,6.34,5.58,19.51,23.53,20.86,43.01,1.24,17.85-13.77,33.9-14.58,35.57Z" style="fill: #ff936b; stroke: #c65560; stroke-miterlimit: 10; stroke-width: 3.47px;"/>
    <path d="M661.82,405.75c-7.8,1.75-31.53,7.24-55.71,9.41-1.58.14-32.95,5.03-62.87,24.74-17.06,11.24-28.11,29.85-35.77,45.31-1.93,3.89-11.65,37.18-19.51,50.57-7.96,13.56-20.58,17.43-24.39,25.28-1.05,2.17-2.62-13.34-4.88-36.78-2.01-20.89,11.31-61.83,11.38-62.06,2.93-9.19,23.74-54.39,63.84-87.34,25.27-20.76,67.57-30.79,96.25-33.27,37.94-3.28,30.76,1.12,54.03-6.13,31.65-9.85,41.72-36.92,41.78-36.94,3.06-.91,9.16,7.63,20.81,17.9,6.34,5.58,16.14,17.78,7.15,36.45-15.39,31.96-68.19,47.49-92.13,52.87Z" style="fill: url(#linear-gradient-2); stroke: #c65560; stroke-miterlimit: 10; stroke-width: 3.47px;"/>
    <path d="M762.03,393.5c-1.99,4.11-42.98,27.7-66.48,30.8-7.55,1-29.48,5.06-52.93,5.79-32.47,1.02-78.57.34-84.64.97-7.32.76,38.96-15.17,76.68-18.55,23.35-2.09,44.32-9.07,49.07-10.73,4.93-1.73,32.57-9.58,52.74-25.23,9.84-7.64,16.63-18.16,21.36-28.37,10.94-23.57-30.42-46.73-30.18-46.8,2.95-.88,17.02,6.17,28.29,16.1,6.13,5.4,18.87,22.76,20.17,41.61,1.2,17.26-13.3,32.79-14.08,34.4Z" style="fill: #ff936b; opacity: .58;"/>
  </g>
  <g id="Eyes">
    <ellipse cx="573.57" cy="555.58" rx="25.52" ry="32.92" style="stroke: #000; stroke-miterlimit: 10; stroke-width: 7.16px;"/>
    <ellipse cx="723.23" cy="556.36" rx="25.52" ry="32.92" style="stroke: #000; stroke-miterlimit: 10; stroke-width: 7.16px;"/>
  </g>
  <g id="Eyebrows_Mouth" data-name="Eyebrows &amp;amp; Mouth">
    <path d="M745.77,502.47c-.52-6.63-5.38-12.19-12.11-13.94-6.24-1.62-13.08.3-17.53,4.92" style="fill: none; stroke: #000; stroke-miterlimit: 10; stroke-width: 5.09px;"/>
    <path d="M578.46,493.62c-4.46-5.28-11.89-7.51-18.57-5.62-6.19,1.75-10.74,6.76-11.66,12.84" style="fill: none; stroke: #000; stroke-miterlimit: 10; stroke-width: 5.09px;"/>
    <path d="M611.63,598.87c6.69,14.56,21.98,23.69,38.21,22.89,15.04-.73,28.44-9.87,34.35-23.41" style="fill: none; stroke: #000; stroke-miterlimit: 10; stroke-width: 11.98px;"/>
  </g>
  <g id="Cheeks" style="opacity: .73;">
    <ellipse cx="528.64" cy="596.81" rx="24.02" ry="18.24" style="fill: #fcacbd;"/>
    <ellipse cx="768.22" cy="597.79" rx="24.02" ry="18.24" style="fill: #fcacbd;"/>
  </g>
</svg>