<?xml version="1.0" encoding="UTF-8"?>
<svg id="Sunny_Peel" data-name="Sunny Peel" xmlns="http://www.w3.org/2000/svg" viewBox="0 0 1280 1024">
  <path d="M515.5,676.1c-8.1,29.98,7.34,70.86,39.61,71.29,23.56.32,55.14,5.69,62.17-28.27" style="fill: #ffa711; stroke: #d77600; stroke-miterlimit: 10; stroke-width: 5.92px;"/>
  <path d="M658.94,721.36c.28,3.29-1.33,10.92,9.29,19.65,13.67,11.23,54.26,12.03,68.61,1.89,18.62-13.16,22.55-33.24,18.03-67.03" style="fill: #ffa711; stroke: #d77600; stroke-miterlimit: 10; stroke-width: 5.92px;"/>
  <path d="M438.83,548.43c-26.47,12.67-56.32,55.51-42.23,80.51,9.51,16.89,37.59,26.58,68.27-.8" style="fill: #ffa711; stroke: #d77600; stroke-miterlimit: 10; stroke-width: 5.92px;"/>
  <path d="M840.04,551.37c36.78,16.34,54.82,46.05,39.49,76.75-8.39,16.79-40.52,29.14-66.4-.43" style="fill: #ffa711; stroke: #d77600; stroke-miterlimit: 10; stroke-width: 5.92px;"/>
  <ellipse cx="638.98" cy="525.19" rx="203.8" ry="194.69" style="fill: #ffa711; stroke: #d77600; stroke-miterlimit: 10; stroke-width: 5.92px;"/>
  <g id="Eyes">
    <ellipse cx="570.27" cy="500.77" rx="27.86" ry="35.72" style="stroke: #000; stroke-miterlimit: 10; stroke-width: 7.8px;"/>
    <ellipse cx="711.14" cy="500.12" rx="27.86" ry="35.72" style="stroke: #000; stroke-miterlimit: 10; stroke-width: 7.8px;"/>
  </g>
  <g id="Eyebrows_Mouth" data-name="Eyebrows &amp;amp; Mouth">
    <path d="M734.59,437.95c-.6-7.92-6.14-14.58-13.83-16.67-7.12-1.94-14.94.36-20.02,5.89" style="fill: none; stroke: #000; stroke-miterlimit: 10; stroke-width: 5.95px;"/>
    <path d="M579.5,429.02c-5.09-6.31-13.58-8.98-21.21-6.72-7.07,2.1-12.27,8.09-13.32,15.35" style="fill: none; stroke: #000; stroke-miterlimit: 10; stroke-width: 5.95px;"/>
    <path d="M598.19,569.11c7.64,17.41,25.12,28.32,43.66,27.37,17.18-.88,32.5-11.8,39.25-27.99" style="fill: none; stroke: #000; stroke-miterlimit: 10; stroke-width: 14px;"/>
  </g>
  <g id="Leaf_Left" data-name="Leaf Left">
    <g>
      <g>
        <path d="M644.33,326.4c-9.65,1.36-17.06,1.8-11.36-14.29,4.05-11.42,9.4-29.25,25.73-43.55,20.89-18.29,33.48-20.01,47.05-20.79,6.61-.38,11.28,4.6,10.28,11.04-1.88,12.08-7.7,27.6-10.41,35.16-8.39,23.48-44.1,30.02-61.3,32.44Z" style="fill: #80b21c;"/>
        <path d="M644.33,326.4c-9.65,1.36-17.06,1.8-11.36-14.29,4.05-11.42,9.4-29.25,25.73-43.55,20.89-18.29,33.48-20.01,47.05-20.79,6.61-.38,11.28,4.6,10.28,11.04-1.88,12.08-7.7,27.6-10.41,35.16-8.39,23.48-44.1,30.02-61.3,32.44Z" style="fill: none; stroke: #578613; stroke-miterlimit: 10; stroke-width: 5.92px;"/>
      </g>
      <path d="M634.24,324.45c4.29-3.21,14.36-16.07,32.11-29.16,12.97-9.56,20.21-15.91,18.41-14.36" style="fill: #80b21c; stroke: #578613; stroke-miterlimit: 10; stroke-width: 5.92px;"/>
    </g>
  </g>
  <g id="Leaf_Right" data-name="Leaf Right">
    <g>
      <g>
        <path d="M622.29,327.2c7.68,1.22,7.68.78,8.62-7.3,1.85-15.88,3.66-44.21-19.57-68.58-30.82-32.33-62.2-40.22-75.78-32.24-14.26,8.38,2.58,59.19,14.71,75.09,17.15,22.49,57.08,30.65,72.03,33.02Z" style="fill: #83b21e;"/>
        <path d="M622.29,327.2c7.68,1.22,7.68.78,8.62-7.3,1.85-15.88,3.66-44.21-19.57-68.58-30.82-32.33-62.2-40.22-75.78-32.24-14.26,8.38,2.58,59.19,14.71,75.09,17.15,22.49,57.08,30.65,72.03,33.02Z" style="fill: none; stroke: #578613; stroke-miterlimit: 10; stroke-width: 5.92px;"/>
      </g>
      <path d="M627.5,324c-29.32-12.43-67.91-73.33-60.4-61.63" style="fill: #83b21e; stroke: #578613; stroke-miterlimit: 10; stroke-width: 5.92px;"/>
    </g>
  </g>
  <g id="Orange_Details" data-name="Orange Details">
    <ellipse cx="548.31" cy="380.9" rx="8.72" ry="6.03" transform="translate(-82.05 600.84) rotate(-54.02)" style="fill: none; stroke: #fb9223; stroke-miterlimit: 10; stroke-width: 2.71px;"/>
    <ellipse cx="680.99" cy="381.04" rx="6.06" ry="6.63" style="fill: none; stroke: #fb9223; stroke-miterlimit: 10; stroke-width: 2.37px;"/>
    <ellipse cx="606" cy="376.83" rx="6.06" ry="6.63" style="fill: none; stroke: #fb9223; stroke-miterlimit: 10; stroke-width: 2.37px;"/>
    <ellipse cx="519.13" cy="414.75" rx="8.69" ry="6.05" transform="translate(-74.16 713.94) rotate(-65.38)" style="fill: none; stroke: #fb9223; stroke-miterlimit: 10; stroke-width: 2.71px;"/>
    <ellipse cx="491.66" cy="469.32" rx="8.68" ry="6.06" transform="translate(-93.9 814.45) rotate(-74.18)" style="fill: none; stroke: #fb9223; stroke-miterlimit: 10; stroke-width: 2.71px;"/>
    <ellipse cx="785.54" cy="457.83" rx="6.06" ry="8.67" transform="translate(-26.49 48.83) rotate(-3.5)" style="fill: none; stroke: #fb9223; stroke-miterlimit: 10; stroke-width: 2.71px;"/>
    <ellipse cx="741.52" cy="396.49" rx="6.06" ry="8.68" transform="translate(-72.33 185.07) rotate(-13.57)" style="fill: none; stroke: #fb9223; stroke-miterlimit: 10; stroke-width: 2.71px;"/>
    <ellipse cx="680.69" cy="380.08" rx="6.89" ry="8.06" transform="translate(-91.67 273.96) rotate(-21.35)" style="fill: none; stroke: #fb9223; stroke-miterlimit: 10; stroke-width: 2.78px;"/>
    <ellipse cx="588.69" cy="630.9" rx="6.89" ry="11.75" transform="translate(-180.77 240.37) rotate(-20.07)" style="fill: none; stroke: #fb9223; stroke-miterlimit: 10; stroke-width: 3.36px;"/>
    <ellipse cx="553.51" cy="655.63" rx="6.87" ry="10.36" transform="translate(-271.21 418.87) rotate(-33.81)" style="fill: none; stroke: #fb9223; stroke-miterlimit: 10; stroke-width: 3.15px;"/>
    <ellipse cx="520.82" cy="608.01" rx="7.9" ry="12.29" transform="translate(-177.76 216.96) rotate(-20.18)" style="fill: none; stroke: #fb9223; stroke-miterlimit: 10; stroke-width: 3.68px;"/>
    <ellipse cx="660.49" cy="666.61" rx="12.78" ry="6.9" transform="translate(-89.24 1230.99) rotate(-82.24)" style="fill: none; stroke: #fb9223; stroke-miterlimit: 10; stroke-width: 3.51px;"/>
    <ellipse cx="714.88" cy="617.55" rx="12.78" ry="6.9" transform="translate(6.42 1242.46) rotate(-82.24)" style="fill: none; stroke: #fb9223; stroke-miterlimit: 10; stroke-width: 3.51px;"/>
    <ellipse cx="721.59" cy="665.4" rx="12.81" ry="6.88" transform="translate(-189.96 1029.43) rotate(-64.45)" style="fill: none; stroke: #fb9223; stroke-miterlimit: 10; stroke-width: 3.51px;"/>
    <ellipse cx="766.4" cy="607.24" rx="11.48" ry="6.9" transform="translate(60.76 1284.12) rotate(-82.2)" style="fill: none; stroke: #fb9223; stroke-miterlimit: 10; stroke-width: 3.32px;"/>
  </g>
  <g id="Cheeks">
    <ellipse cx="521.67" cy="549.56" rx="28.82" ry="17.89" style="fill: #fcacbd;"/>
    <ellipse cx="757.88" cy="549.07" rx="28.82" ry="17.89" style="fill: #fcacbd;"/>
  </g>
</svg>